<svg xmlns="http://www.w3.org/2000/svg" width="293.989" height="93.946"><path d="M11.5 32.63a1.278 1.278 0 0 1 1.011.412 1.637 1.637 0 0 1 .4.99 2.071 2.071 0 0 1-.2 1.071 1.011 1.011 0 0 1-.809.577.654.654 0 0 0-.486.33 3.014 3.014 0 0 0-.485 1.814V79.7a15.173 15.173 0 0 1-1.415 7.008 16.975 16.975 0 0 1-3.113 4.369 13.3 13.3 0 0 1-4.448 2.8 1.383 1.383 0 0 1-1.051-.082 1.658 1.658 0 0 1-.727-.7 1.545 1.545 0 0 1-.162-.989 1.527 1.527 0 0 1 .566-.949 10.144 10.144 0 0 0 1.7-2.142A16.4 16.4 0 0 0 3.5 86.13a13.319 13.319 0 0 0 .566-4.121V37.576a5.743 5.743 0 0 0-.2-1.03 1.4 1.4 0 0 0-.283-.536.928.928 0 0 0-.324-.33 1.27 1.27 0 0 1-.889-.658 1.71 1.71 0 0 1-.162-1.031 2 2 0 0 1 .4-.948 1.156 1.156 0 0 1 .971-.412H11.5M54.013 78.587a7.459 7.459 0 0 0 2.062-.7 2.865 2.865 0 0 0 1.294-1.072 1.365 1.365 0 0 1 .849-.618 1.8 1.8 0 0 1 1.011.04 1.392 1.392 0 0 1 .768.66 1.646 1.646 0 0 1 .2 1.071l-.971 4.369a2.5 2.5 0 0 1-.566.825 1.313 1.313 0 0 1-.971.413H30.848a1.275 1.275 0 0 1-1.011-.413 1.8 1.8 0 0 1-.444-.948 1.7 1.7 0 0 1 .162-1.03 1.27 1.27 0 0 1 .889-.66 1.382 1.382 0 0 0 .4-.412 3.771 3.771 0 0 0 .324-.659 2.991 2.991 0 0 0 .161-1.072V37.824a4.334 4.334 0 0 0-.121-1.113 2.5 2.5 0 0 0-.282-.7c-.163-.219-.3-.33-.406-.33a1.27 1.27 0 0 1-.889-.658 1.953 1.953 0 0 1-.2-1.032 1.575 1.575 0 0 1 .4-.948 1.278 1.278 0 0 1 1.011-.412H57.69a1.475 1.475 0 0 1 1.092.454 1.531 1.531 0 0 1 .444 1.113v4.122a1.473 1.473 0 0 1-1.011 1.525 1.431 1.431 0 0 1-1.739-.537 3.8 3.8 0 0 0-1.456-.988 10.636 10.636 0 0 0-2.425-.7 21.713 21.713 0 0 0-3.882-.288H38.204v15.5h10.189a6.969 6.969 0 0 0 1.738-.165 3.9 3.9 0 0 0 1.012-.412 3.691 3.691 0 0 0 .647-.659 1.381 1.381 0 0 1 .727-.783 1.718 1.718 0 0 1 .971-.124 1.452 1.452 0 0 1 .849.493 1.45 1.45 0 0 1 .364.99v6.1a1.3 1.3 0 0 1-.364.948 1.522 1.522 0 0 1-.849.453 1.7 1.7 0 0 1-.971-.123 1.375 1.375 0 0 1-.727-.783 8.471 8.471 0 0 0-.647-.577 5.082 5.082 0 0 0-1.012-.453 5.662 5.662 0 0 0-1.738-.206H38.204v21.351h12.454a16.139 16.139 0 0 0 3.355-.29M104.044 77.562a4.942 4.942 0 0 0 .971 1.483 6.958 6.958 0 0 0 1.051.908 3.642 3.642 0 0 0 1.132.577 1.553 1.553 0 0 1 .809.742 1.615 1.615 0 0 1 .161.989 1.665 1.665 0 0 1-.485.907 1.31 1.31 0 0 1-.971.413h-2.506a6.827 6.827 0 0 1-3.72-1.073 7.945 7.945 0 0 1-2.669-2.72L87.87 61.241h-7.116v17.147a2.971 2.971 0 0 0 .161 1.071 3.559 3.559 0 0 0 .324.66 1.082 1.082 0 0 0 .485.412 1.246 1.246 0 0 1 .809.659 1.962 1.962 0 0 1 .2 1.03 1.477 1.477 0 0 1-.445.948 1.307 1.307 0 0 1-.97.413h-7.924a1.275 1.275 0 0 1-1.012-.413 1.807 1.807 0 0 1-.445-.948 1.7 1.7 0 0 1 .163-1.03 1.27 1.27 0 0 1 .888-.659 1.409 1.409 0 0 0 .406-.412 3.734 3.734 0 0 0 .323-.66 2.989 2.989 0 0 0 .162-1.071V37.83a4.391 4.391 0 0 0-.121-1.114 2.515 2.515 0 0 0-.283-.7c-.162-.22-.3-.331-.4-.331a1.268 1.268 0 0 1-.89-.658 1.967 1.967 0 0 1-.2-1.031 1.582 1.582 0 0 1 .4-.948 1.278 1.278 0 0 1 1.012-.411h17.062a13.3 13.3 0 0 1 5.661 1.236 14.348 14.348 0 0 1 4.568 3.3 14.839 14.839 0 0 1 2.952 4.823 13.225 13.225 0 0 1 .809 5.812 12.841 12.841 0 0 1-.849 4.2 14.148 14.148 0 0 1-2.062 3.628 15.606 15.606 0 0 1-2.952 2.885 14.968 14.968 0 0 1-3.6 1.979Zm-15.85-21.021a8.753 8.753 0 0 0 3.437-.7 9.606 9.606 0 0 0 2.911-1.9 10.108 10.108 0 0 0 2.062-2.8 9.535 9.535 0 0 0 .971-3.5 9.371 9.371 0 0 0-.526-3.958 10.019 10.019 0 0 0-1.941-3.3 9.12 9.12 0 0 0-3.072-2.225 9.214 9.214 0 0 0-3.841-.825h-7.441v19.208h7.439M120.365 36.174a11.147 11.147 0 0 1-.642-.577 1.218 1.218 0 0 1-.723-.741 1.778 1.778 0 0 1-.041-.99 1.843 1.843 0 0 1 .482-.865 1.332 1.332 0 0 1 1-.371l7.467.081a1.433 1.433 0 0 1 1.525 1.113 1.456 1.456 0 0 1-.723 1.773l-.562.577a2.43 2.43 0 0 0-.4 1.65v40.558q0 2.144.241 2.143a1.387 1.387 0 0 1 .844.659 1.582 1.582 0 0 1 .2 1.03 1.818 1.818 0 0 1-.442.948 1.171 1.171 0 0 1-.923.413h-7.146a1.261 1.261 0 0 1-1-.413 1.8 1.8 0 0 1-.441-.948 1.715 1.715 0 0 1 .161-1.03 1.262 1.262 0 0 1 .883-.659 1.6 1.6 0 0 0 .442-.537 3.262 3.262 0 0 0 .281-1.606V37.824a2.142 2.142 0 0 0-.482-1.65M168.039 78.712a29.107 29.107 0 0 0 10.907-2.283 1.452 1.452 0 0 1 2.112 1.147l1.052 2.208a1.462 1.462 0 0 1-.122 1.113 1.363 1.363 0 0 1-.768.7 23.462 23.462 0 0 1-3.558.99 35.179 35.179 0 0 1-4.163.7 46.874 46.874 0 0 1-5.459.29 24.248 24.248 0 0 1-9.744-1.979 24.872 24.872 0 0 1-7.965-5.441 25.439 25.439 0 0 1-5.338-8.119 25.57 25.57 0 0 1-1.941-9.934 28.756 28.756 0 0 1 1.7-9.933 24.249 24.249 0 0 1 4.851-8.12 22.448 22.448 0 0 1 7.643-5.442 24.709 24.709 0 0 1 10.068-1.978 46.436 46.436 0 0 1 5.417.289 35.953 35.953 0 0 1 4.125.7 33.676 33.676 0 0 1 3.558.907 1.251 1.251 0 0 1 .889.7 1.8 1.8 0 0 1 .081 1.2l-.766 2.238c-.354.887-.934 1.549-2.023 1.119-6.757-2.672-9.818-2.639-11.35-2.639a14.419 14.419 0 0 0-6.926 2 18.121 18.121 0 0 0-5.5 4.576 21.481 21.481 0 0 0-3.6 6.595 23.7 23.7 0 0 0-1.295 7.791 22.429 22.429 0 0 0 1.375 7.789 21.357 21.357 0 0 0 3.8 6.594 18.522 18.522 0 0 0 5.741 4.534 15.6 15.6 0 0 0 7.2 1.691M222.961 36.174a11.447 11.447 0 0 1-.647-.577 1.225 1.225 0 0 1-.728-.741 1.773 1.773 0 0 1-.04-.99 1.834 1.834 0 0 1 .485-.865 1.244 1.244 0 0 1 .93-.371l7.6.081a1.445 1.445 0 0 1 1.538 1.113 1.454 1.454 0 0 1-.729 1.773c-.109.111-.31.3-.606.577a2.264 2.264 0 0 0-.445 1.65v40.558a4.7 4.7 0 0 0 .2 1.69c.135.3.228.454.282.454a1.394 1.394 0 0 1 .85.659 1.574 1.574 0 0 1 .2 1.03 1.808 1.808 0 0 1-.445.948 1.276 1.276 0 0 1-1.011.413h-7.359a1.155 1.155 0 0 1-.971-.413 1.966 1.966 0 0 1-.4-.948 1.71 1.71 0 0 1 .161-1.03 1.275 1.275 0 0 1 .89-.659 1.6 1.6 0 0 0 .445-.537 3.243 3.243 0 0 0 .282-1.606v-17.4l-19.974-2.9v20.294a4.027 4.027 0 0 0 .243 1.648c.162.33.269.5.323.5a1.393 1.393 0 0 1 .85.659 1.564 1.564 0 0 1 .2 1.03 1.806 1.806 0 0 1-.445.948 1.275 1.275 0 0 1-1.01.413h-7.44a1.156 1.156 0 0 1-.971-.413 1.968 1.968 0 0 1-.4-.948 1.71 1.71 0 0 1 .161-1.03 1.273 1.273 0 0 1 .891-.659 1.6 1.6 0 0 0 .445-.537 3.247 3.247 0 0 0 .282-1.606V37.824a2.137 2.137 0 0 0-.485-1.65 11.447 11.447 0 0 1-.647-.577 1.224 1.224 0 0 1-.728-.741 1.773 1.773 0 0 1-.04-.99 1.823 1.823 0 0 1 .485-.865 1.241 1.241 0 0 1 .93-.371h7.763a1.386 1.386 0 0 1 .971.371 1.709 1.709 0 0 1 .526.865 1.6 1.6 0 0 1-.081.99 1.416 1.416 0 0 1-.688.741 4.632 4.632 0 0 0-.648.5 2.275 2.275 0 0 0-.485 1.731v15.566l19.974 2.9V37.831a2.138 2.138 0 0 0-.485-1.65M269.003 32.63a24.007 24.007 0 0 1 9.7 1.977 25.041 25.041 0 0 1 7.926 5.442 26 26 0 0 1 5.376 8.12 25.092 25.092 0 0 1 1.98 9.933 25.093 25.093 0 0 1-1.98 9.935 26.008 26.008 0 0 1-5.376 8.119 25.017 25.017 0 0 1-7.926 5.44 23.956 23.956 0 0 1-9.7 1.979 24.235 24.235 0 0 1-9.745-1.979 24.859 24.859 0 0 1-7.965-5.44 25.463 25.463 0 0 1-5.338-8.119 25.569 25.569 0 0 1-1.941-9.935 25.568 25.568 0 0 1 1.941-9.933 25.459 25.459 0 0 1 5.338-8.12 24.882 24.882 0 0 1 7.965-5.442 24.286 24.286 0 0 1 9.745-1.977m18.116 25.472a22.483 22.483 0 0 0-1.375-7.789 21.423 21.423 0 0 0-3.8-6.6 19.115 19.115 0 0 0-5.742-4.575 15.332 15.332 0 0 0-7.2-1.731 15.315 15.315 0 0 0-7.2 1.731 19.1 19.1 0 0 0-5.741 4.575 21.375 21.375 0 0 0-3.8 6.6 22.434 22.434 0 0 0-1.375 7.789 22.411 22.411 0 0 0 1.375 7.789 21.349 21.349 0 0 0 3.8 6.595 18.525 18.525 0 0 0 5.741 4.535 15.6 15.6 0 0 0 7.2 1.691 15.615 15.615 0 0 0 7.2-1.691 18.543 18.543 0 0 0 5.742-4.535 21.4 21.4 0 0 0 3.8-6.595 22.459 22.459 0 0 0 1.375-7.789M97.954.468a.306.306 0 0 1 .307-.307h4.381a3.475 3.475 0 0 1 3.512 3.448 3.574 3.574 0 0 1-2.383 3.27l2.207 4.091a.306.306 0 0 1-.275.468h-1.256a.3.3 0 0 1-.258-.146l-2.143-4.268h-2.432v4.108a.317.317 0 0 1-.306.307h-1.047a.307.307 0 0 1-.307-.307Zm4.559 5.171a2 2 0 0 0 1.965-2 1.974 1.974 0 0 0-1.965-1.918h-2.868v3.915h2.868M108.634.468a.307.307 0 0 1 .307-.307h6.444a.306.306 0 0 1 .305.307v.9a.3.3 0 0 1-.305.305h-5.091V4.96h4.3a.316.316 0 0 1 .306.306v.9a.306.306 0 0 1-.306.306h-4.3v3.463h5.091a.306.306 0 0 1 .305.307v.886a.306.306 0 0 1-.305.307h-6.446a.307.307 0 0 1-.307-.307V.464M117.427 9.811c.146-.209.274-.451.418-.66a.366.366 0 0 1 .548-.129 4.732 4.732 0 0 0 2.577 1.111 1.622 1.622 0 0 0 1.82-1.5c0-.967-.837-1.58-2.432-2.24-1.644-.692-2.932-1.547-2.932-3.415 0-1.257.967-2.981 3.529-2.981a5.465 5.465 0 0 1 2.979.95.384.384 0 0 1 .1.549c-.129.193-.273.418-.4.613a.38.38 0 0 1-.563.16 4.97 4.97 0 0 0-2.175-.8c-1.353 0-1.82.854-1.82 1.45 0 .918.709 1.482 2.047 2.03 1.868.758 3.463 1.643 3.463 3.609 0 1.674-1.5 3.045-3.593 3.045a5.217 5.217 0 0 1-3.463-1.273.339.339 0 0 1-.1-.516M128.401 1.676h-2.626a.305.305 0 0 1-.306-.306v-.9a.306.306 0 0 1 .306-.307h6.928a.306.306 0 0 1 .306.307v.9a.305.305 0 0 1-.306.306h-2.625v9.457a.319.319 0 0 1-.307.307h-1.063a.319.319 0 0 1-.307-.307V1.676M132.661 11.02 137.607.178a.376.376 0 0 1 .274-.178h.161a.377.377 0 0 1 .275.178l4.913 10.842a.284.284 0 0 1-.273.418h-1.015a.376.376 0 0 1-.37-.241l-1-2.208h-5.268c-.323.741-.661 1.466-.983 2.208a.4.4 0 0 1-.37.241h-1.015a.284.284 0 0 1-.275-.418m7.3-3.415-1.981-4.414h-.081l-1.965 4.414h4.028M144.5.469a.318.318 0 0 1 .306-.307h1.079a.306.306 0 0 1 .307.307v6.653a2.659 2.659 0 0 0 2.674 2.868 2.656 2.656 0 0 0 2.707-2.835V.47a.307.307 0 0 1 .307-.307h1.079a.317.317 0 0 1 .306.307v6.766a4.287 4.287 0 0 1-4.4 4.366 4.27 4.27 0 0 1-4.365-4.366V.47M156.162.468a.306.306 0 0 1 .306-.307h4.381a3.475 3.475 0 0 1 3.512 3.448 3.575 3.575 0 0 1-2.383 3.27l2.206 4.091a.3.3 0 0 1-.273.468h-1.257a.3.3 0 0 1-.258-.146l-2.143-4.268h-2.432v4.108a.318.318 0 0 1-.307.307h-1.047a.306.306 0 0 1-.306-.307Zm4.558 5.171a2 2 0 0 0 1.966-2 1.975 1.975 0 0 0-1.966-1.918h-2.867v3.915h2.867M165.313 11.02 170.259.178a.378.378 0 0 1 .275-.178h.161a.378.378 0 0 1 .275.178l4.913 10.842a.285.285 0 0 1-.275.418h-1.015a.376.376 0 0 1-.37-.241l-1-2.208h-5.267c-.322.741-.661 1.466-.982 2.208a.407.407 0 0 1-.37.241h-1.016a.284.284 0 0 1-.274-.418m7.3-3.415-1.982-4.414h-.081l-1.964 4.414h4.027M177.409.29a.3.3 0 0 1 .307-.29h.4l6.992 8.087h.016V.468a.307.307 0 0 1 .307-.307h1.031a.317.317 0 0 1 .306.307V11.31a.3.3 0 0 1-.306.29h-.419l-6.992-8.313h-.015v7.845a.307.307 0 0 1-.307.307h-1.014a.318.318 0 0 1-.307-.307V.29M191.42 1.676h-2.626a.305.305 0 0 1-.306-.306v-.9a.306.306 0 0 1 .306-.307h6.927a.306.306 0 0 1 .306.307v.9a.305.305 0 0 1-.306.306h-2.626v9.457a.317.317 0 0 1-.305.307h-1.064a.318.318 0 0 1-.306-.307V1.676" fill="#efe6d4"/></svg>