<svg xmlns="http://www.w3.org/2000/svg" width="31.907" height="31.746"><g data-name="Facebook_f_logo_(2021)"><path fill="currentColor" d="m18.585 31.747-.067-.055.052-.009.1-.017V20.42h3.51l.718-4.467H18.67v-3.11c0-1.545.738-2.234 2.394-2.234h2.073V6.542a26.257 26.257 0 0 0-3.51-.32 6.3 6.3 0 0 0-4.487 1.615 6.206 6.206 0 0 0-1.735 4.606v3.51H9.418v4.467h3.987v11.246h.016l-.1.079a16.3 16.3 0 0 1-9.5-5.445 15.93 15.93 0 0 1-2.8-4.741A15.858 15.858 0 0 1 .005 15.95a15.747 15.747 0 0 1 1.259-6.193 15.97 15.97 0 0 1 3.428-5.072 15.982 15.982 0 0 1 5.073-3.428 15.75 15.75 0 0 1 6.194-1.259 15.75 15.75 0 0 1 6.194 1.259 15.982 15.982 0 0 1 5.073 3.428 15.97 15.97 0 0 1 3.428 5.072 15.747 15.747 0 0 1 1.259 6.193 15.858 15.858 0 0 1-1.016 5.609 15.93 15.93 0 0 1-2.8 4.741 16.3 16.3 0 0 1-9.5 5.445Z" data-name="Subtraction 1"/></g></svg>