<svg xmlns="http://www.w3.org/2000/svg" width="32" height="32"><path fill="#efe6d4" d="M16 2.883c4.272 0 4.778.016 6.465.093a8.856 8.856 0 0 1 2.971.551 4.958 4.958 0 0 1 1.84 1.2 4.957 4.957 0 0 1 1.2 1.84 8.854 8.854 0 0 1 .551 2.971c.077 1.687.093 2.193.093 6.465s-.016 4.778-.093 6.465a8.854 8.854 0 0 1-.551 2.971 5.3 5.3 0 0 1-3.037 3.037 8.854 8.854 0 0 1-2.971.551c-1.687.077-2.193.093-6.465.093s-4.778-.016-6.465-.093a8.853 8.853 0 0 1-2.971-.551 4.957 4.957 0 0 1-1.84-1.2 4.957 4.957 0 0 1-1.2-1.84 8.854 8.854 0 0 1-.551-2.971C2.9 20.778 2.883 20.272 2.883 16s.016-4.778.093-6.465a8.854 8.854 0 0 1 .551-2.971 4.957 4.957 0 0 1 1.2-1.84 4.958 4.958 0 0 1 1.84-1.2 8.855 8.855 0 0 1 2.971-.551c1.684-.073 2.19-.09 6.462-.09M16 0c-4.345 0-4.89.018-6.6.1a11.744 11.744 0 0 0-3.881.74 7.843 7.843 0 0 0-2.834 1.845A7.843 7.843 0 0 0 .84 5.519 11.744 11.744 0 0 0 .1 9.4C.018 11.11 0 11.655 0 16s.018 4.89.1 6.6a11.744 11.744 0 0 0 .74 3.881 7.843 7.843 0 0 0 1.845 2.834 7.843 7.843 0 0 0 2.834 1.845 11.744 11.744 0 0 0 3.881.74c1.707.078 2.251.1 6.6.1s4.89-.018 6.6-.1a11.744 11.744 0 0 0 3.884-.744 8.182 8.182 0 0 0 4.679-4.679A11.744 11.744 0 0 0 31.9 22.6c.078-1.707.1-2.251.1-6.6s-.018-4.89-.1-6.6a11.744 11.744 0 0 0-.744-3.884 7.843 7.843 0 0 0-1.845-2.834A7.843 7.843 0 0 0 26.481.84 11.744 11.744 0 0 0 22.6.1C20.89.018 20.345 0 16 0Zm0 7.784A8.216 8.216 0 1 0 24.216 16 8.216 8.216 0 0 0 16 7.784Zm0 13.55A5.333 5.333 0 1 1 21.333 16 5.333 5.333 0 0 1 16 21.333ZM26.461 7.459a1.92 1.92 0 1 1-1.92-1.92 1.92 1.92 0 0 1 1.92 1.92Z" data-name="Path 1"/></svg>